<svg width="200" height="200" viewBox="0 0 200 200" fill="none" xmlns="http://www.w3.org/2000/svg">
<g clip-path="url(#clip0_431_229)">
<path d="M117.8 155.061C117.8 151.579 117.87 148.097 117.782 144.615C117.693 141.203 116.5 138.121 114.549 135.33C114.206 134.843 113.463 134.448 113.755 133.78C114.08 133.037 114.939 133.153 115.613 133.111C120.08 132.828 124.293 131.477 128.338 129.718C135.341 126.668 140.338 121.593 142.721 114.23C145.753 104.857 146.677 95.4656 142.261 86.2131C141.499 84.6208 140.524 83.0934 139.428 81.7146C138.415 80.4426 138.211 79.333 138.62 77.7128C139.827 72.8986 139.604 68.075 138.076 63.3072C137.505 61.5338 136.446 61.0928 134.751 61.2924C130.335 61.817 126.35 63.5533 122.751 65.9859C119.867 67.9358 117.224 68.3814 113.727 67.6247C104.081 65.531 94.3521 65.8234 84.748 68.2422C83.4802 68.5625 82.5374 68.2422 81.4972 67.5922C77.0945 64.8346 72.6223 62.2163 67.3465 61.4363C64.3046 60.986 64.0074 61.1949 63.1947 64.2357C61.9687 68.8086 61.7968 73.3999 62.9671 78.0006C63.2736 79.2077 63.2411 80.2104 62.3959 81.2364C58.0119 86.5567 56.2378 92.8054 56.34 99.5695C56.4236 105.15 57.1481 110.642 59.3494 115.892C61.8293 121.812 65.9579 126.11 71.5959 128.98C75.901 131.166 80.4801 132.573 85.3053 133.074C87.9664 133.348 88.1522 133.617 86.5964 135.669C85.2914 137.396 84.6459 139.374 84.2325 141.412C83.8842 143.111 82.895 143.873 81.3625 144.351C73.3328 146.867 67.3419 144.699 62.7814 137.642C61.4764 135.623 59.9392 133.78 57.9236 132.396C56.5675 131.468 55.1279 130.646 53.4746 130.553C52.1556 130.479 50.3212 129.843 49.7082 131.408C49.0905 132.986 50.9667 133.501 51.9745 134.17C55.6341 136.593 57.919 140.149 59.4376 144.021C62.0012 150.558 66.91 153.148 73.4675 153.501C75.9474 153.636 78.4228 153.547 80.8702 153.097C82.7371 152.754 83.6195 153.366 83.5777 155.372C83.5081 158.696 83.6288 162.025 83.5824 165.353C83.5313 169.09 81.395 170.78 77.7679 169.68C71.2708 167.712 65.3124 164.536 59.8556 160.553C44.5718 149.397 34.8842 134.56 31.3128 115.934C25.8792 87.643 37.6799 58.7808 61.7364 43.2611C85.3378 28.0338 110.23 26.8407 134.761 40.5174C157.507 53.2006 169.601 73.4092 170.91 99.4999C171.974 120.656 164.441 138.747 149.524 153.71C142.892 160.363 135.035 165.274 126.322 168.784C125.04 169.299 123.68 169.74 122.319 169.903C119.444 170.246 117.898 168.863 117.842 165.971C117.772 162.336 117.823 158.701 117.823 155.061C117.81 155.061 117.805 155.061 117.8 155.061Z" fill="white"/>
</g>
<defs>
<clipPath id="clip0_431_229">
<rect width="141" height="139" fill="white" transform="translate(30 31)"/>
</clipPath>
</defs>
</svg>
