<svg preserveAspectRatio="none" width="100%" height="100%" overflow="visible" style="display: block;" viewBox="0 0 370 93.5832" fill="none" xmlns="http://www.w3.org/2000/svg">
<g id="Group 1" style="mix-blend-mode:lighten">
<path id="Vector" d="M120.004 30.6875C127.077 28.4953 134.741 28.3259 141.927 30.2021C148.922 32.0284 155.12 35.7029 159.711 40.7265L149.833 47.7001C147.705 45.3794 145.045 43.498 142.032 42.1865C138.875 40.8123 135.412 40.0966 131.905 40.0917H131.852C127.911 40.0922 124.031 40.9871 120.578 42.6943C117.124 44.4016 114.206 46.8677 112.101 49.8662C109.996 52.865 108.775 56.297 108.558 59.8408C108.341 63.3847 109.136 66.9176 110.864 70.1064C112.591 73.2947 115.194 76.0325 118.421 78.0673C121.648 80.1019 125.397 81.3687 129.315 81.7529C133.233 82.1371 137.198 81.6267 140.837 80.2675C144.331 78.9631 147.416 76.9143 149.831 74.3007L159.711 81.2656C155.12 86.2893 148.922 89.9647 141.927 91.791C134.741 93.6671 127.077 93.4967 120.004 91.3046C112.932 89.1125 106.808 85.0098 102.48 79.5761C98.1524 74.1434 95.8325 67.649 95.8325 60.996C95.8325 54.343 98.1523 47.8487 102.48 42.416C106.808 36.9823 112.932 32.8796 120.004 30.6875Z" fill="url(#paint0_linear_0_15)" stroke="var(--stroke-0, black)"/>
<path id="Vector_2" d="M85.3887 28.9091V93.083H72.2305V28.9091H85.3887Z" fill="url(#paint1_linear_0_15)" stroke="var(--stroke-0, black)"/>
<path id="Vector_3" d="M128.892 0.558594C141.281 0.0719729 153.577 2.62722 164.465 7.93945L158.251 18.0117C149.436 13.6935 139.479 11.6165 129.449 12.0068C119.419 12.3973 109.697 15.24 101.328 20.2285L94.1797 10.6943C104.507 4.5523 116.505 1.04512 128.892 0.558594Z" fill="url(#paint2_linear_0_15)" stroke="var(--stroke-0, black)"/>
<path id="Vector_4" d="M30.3115 28.9091C44.4859 28.9091 50.6328 30.7375 57.5439 34.0693V44.2998C50.19 40.7677 42.1128 38.5828 33.79 37.875L33.7812 37.874L33.1543 37.8359C26.7344 37.488 21.9399 38.5452 18.7061 40.165C15.4021 41.82 13.6192 44.1315 13.6191 46.1943C13.6191 47.1495 13.7942 48.1059 14.417 49.0234C15.0338 49.9319 16.056 50.7529 17.6543 51.5126C20.6367 52.9303 25.7687 54.1992 34.4863 55.3632L36.2783 55.5947C48.4225 57.1164 54.7733 60.0309 58.0977 63.4042C61.3976 66.7529 61.7959 70.636 61.7959 74.3701C61.7958 77.9876 60.0951 82.6544 55.7529 86.4238C51.4152 90.1892 44.4105 93.0829 33.7734 93.083C22.6951 93.083 14.3004 91.3808 8.68359 89.6835C5.875 88.8349 3.76023 87.9876 2.35156 87.3544C1.64722 87.0379 1.11941 86.7745 0.769531 86.5917C0.662648 86.5359 0.573617 86.4853 0.5 86.4453V74.9677C0.857583 75.1786 1.33653 75.4519 1.94141 75.7646C3.41569 76.5267 5.62832 77.5402 8.59863 78.5585C14.3548 80.5319 22.9529 82.5215 34.5322 82.7333L35.6621 82.749C45.1601 82.8311 48.7548 77.8031 48.7549 74.3466C48.7549 73.5651 48.7226 72.6618 48.3887 71.7402C48.0503 70.8064 47.4157 69.8863 46.2676 69.0371C44.0029 67.3618 39.7229 65.9483 31.6582 65.1406C23.2923 64.3019 15.4659 62.6166 9.74609 59.5947C4.04375 56.5819 0.5 52.2836 0.5 46.1943C0.500019 40.1166 4.29234 35.811 9.9668 32.998C15.6495 30.1809 23.1441 28.9092 30.3115 28.9091Z" fill="url(#paint3_linear_0_15)" stroke="var(--stroke-0, black)"/>
<path id="Vector_5" d="M272.313 28.9091C280.21 28.9091 287.763 30.2215 293.328 33.833C298.857 37.4208 302.483 43.3161 302.483 52.6523V93.083H289.629V53.666C289.629 47.6635 287.757 44.0756 284.554 42.0312C281.405 40.0217 277.068 39.5761 272.313 39.5761C267.558 39.5761 263.222 40.0217 260.073 42.0312C256.87 44.0756 254.998 47.6635 254.998 53.666V93.083H242.131V52.6523C242.131 43.3162 245.757 37.4208 251.287 33.833C256.854 30.2214 264.411 28.9091 272.313 28.9091Z" fill="url(#paint4_linear_0_15)" stroke="var(--stroke-0, black)"/>
<path id="Vector_6" d="M185.067 28.9091V71.874C185.067 74.4251 185.465 76.394 186.268 77.9013C187.078 79.4219 188.28 80.4341 189.806 81.0996C191.318 81.7587 193.146 82.0771 195.223 82.2353C197.302 82.3936 199.674 82.3935 202.28 82.3935H204.321V93.083H202.28C194.398 93.0829 186.887 92.3927 181.355 89.4013C178.602 87.9124 176.342 85.8559 174.768 83.0253C173.192 80.1915 172.285 76.5516 172.285 71.874V28.9091H185.067Z" fill="url(#paint5_linear_0_15)" stroke="var(--stroke-0, black)"/>
<path id="Vector_7" d="M326.802 28.9091V51.3134L327.634 50.5722L351.962 28.9091H367.567L336.175 56.8505L335.795 57.1894L336.14 57.5634L368.859 93.083H354.151L327.669 64.3251L326.802 63.3828V93.083H313.867V28.9091H326.802Z" fill="url(#paint6_linear_0_15)" stroke="var(--stroke-0, black)"/>
<path id="Vector_8" d="M229.805 28.9091V93.083H217.591V28.9091H229.805Z" fill="url(#paint7_linear_0_15)" stroke="var(--stroke-0, black)"/>
</g>
<defs>
<linearGradient id="paint0_linear_0_15" x1="95.3325" y1="60.9961" x2="160.46" y2="60.9961" gradientUnits="userSpaceOnUse">
<stop stop-color="white"/>
<stop offset="1" stop-color="#999999"/>
</linearGradient>
<linearGradient id="paint1_linear_0_15" x1="71.7305" y1="60.9961" x2="85.8886" y2="60.9961" gradientUnits="userSpaceOnUse">
<stop stop-color="white"/>
<stop offset="1" stop-color="#999999"/>
</linearGradient>
<linearGradient id="paint2_linear_0_15" x1="93.4463" y1="10.4446" x2="165.181" y2="10.4446" gradientUnits="userSpaceOnUse">
<stop stop-color="white"/>
<stop offset="1" stop-color="#999999"/>
</linearGradient>
<linearGradient id="paint3_linear_0_15" x1="0" y1="60.9961" x2="62.296" y2="60.9961" gradientUnits="userSpaceOnUse">
<stop stop-color="white"/>
<stop offset="1" stop-color="#999999"/>
</linearGradient>
<linearGradient id="paint4_linear_0_15" x1="241.631" y1="60.9961" x2="302.983" y2="60.9961" gradientUnits="userSpaceOnUse">
<stop stop-color="white"/>
<stop offset="1" stop-color="#999999"/>
</linearGradient>
<linearGradient id="paint5_linear_0_15" x1="171.785" y1="60.9961" x2="204.82" y2="60.9961" gradientUnits="userSpaceOnUse">
<stop stop-color="white"/>
<stop offset="1" stop-color="#999999"/>
</linearGradient>
<linearGradient id="paint6_linear_0_15" x1="313.367" y1="60.9961" x2="370" y2="60.9961" gradientUnits="userSpaceOnUse">
<stop stop-color="white"/>
<stop offset="1" stop-color="#999999"/>
</linearGradient>
<linearGradient id="paint7_linear_0_15" x1="217.091" y1="60.9961" x2="230.306" y2="60.9961" gradientUnits="userSpaceOnUse">
<stop stop-color="white"/>
<stop offset="1" stop-color="#999999"/>
</linearGradient>
</defs>
</svg>
