<svg width="200" height="200" viewBox="0 0 200 200" fill="none" xmlns="http://www.w3.org/2000/svg">
<g clip-path="url(#clip0_431_227)">
<path d="M107.901 91.5542C109.221 89.7881 110.105 88.4264 111.16 87.2276C116.136 81.569 122.437 78.6977 129.925 78.4264C137.625 78.1452 144.932 79.2799 151.149 84.3662C156.106 88.4215 158.442 93.9469 159.801 99.9904C160.616 103.607 160.935 107.287 160.935 111.002C160.93 126.863 160.905 142.724 161.003 158.585C161.018 160.972 160.228 161.712 157.897 161.668C151.444 161.545 144.981 161.555 138.523 161.678C136.266 161.717 135.544 160.928 135.559 158.688C135.633 145.95 135.579 133.212 135.593 120.474C135.598 116.927 135.368 113.404 134.617 109.946C133.468 104.662 129.817 101.613 124.424 101.308C115.311 100.79 110.1 105.195 108.838 114.278C108.112 119.522 108.416 124.776 108.382 130.03C108.318 139.561 108.382 149.098 108.372 158.629C108.372 161.619 108.112 161.895 105.178 161.91C98.7196 161.934 92.2615 161.846 85.8035 161.959C83.4136 161.999 82.7217 161.046 82.7266 158.752C82.7855 133.686 82.7904 108.624 82.7462 83.5572C82.7413 81.2483 83.497 80.3406 85.8722 80.385C92.3253 80.5132 98.7883 80.4886 105.246 80.4244C107.263 80.4047 108.029 81.1645 107.931 83.1921C107.808 85.7772 107.901 88.382 107.901 91.5542Z" fill="white"/>
<path d="M67.6382 121.094C67.6382 133.581 67.648 146.062 67.6284 158.549C67.6235 161.701 67.3879 161.834 64.2963 161.958C57.6812 162.219 51.0808 161.173 44.4658 161.889C42.866 162.061 41.9778 161.336 42.0416 159.629C42.0612 159.057 42.0268 158.48 42.0317 157.902C42.1299 133.107 42.2575 108.312 42.2869 83.5163C42.2918 81.1631 43.023 80.3491 45.3736 80.3935C51.8268 80.5069 58.2848 80.4971 64.7379 80.3688C67.0346 80.3244 67.6872 81.1878 67.6774 83.3881C67.6038 95.9584 67.6382 108.529 67.6382 121.094Z" fill="white"/>
<path d="M55.2373 69.3605C46.7133 69.3556 40.0344 62.7843 40.0001 54.3679C39.9706 46.1044 46.8802 39.0496 55.046 39.0003C63.5749 38.9509 70.1654 45.7985 70.1458 54.6885C70.1262 62.9027 63.5651 69.3605 55.2373 69.3605Z" fill="white"/>
</g>
<defs>
<clipPath id="clip0_431_227">
<rect width="121" height="123" fill="white" transform="translate(40 39)"/>
</clipPath>
</defs>
</svg>
