<svg width="200" height="200" viewBox="0 0 200 200" fill="none" xmlns="http://www.w3.org/2000/svg">
<g clip-path="url(#clip0_431_223)">
<path d="M77.4899 37.018C96.8294 37.4399 112.321 45.0982 123.102 61.5184C125.873 65.7425 127.557 70.413 128.59 75.3336C129.148 77.9976 128.938 78.2233 126.108 78.3459C109.109 79.0671 95.7278 86.4309 86.3077 100.614C81.3382 108.096 79.1595 116.505 79.8302 125.536C79.9624 127.307 79.5218 127.94 77.7004 127.68C73.8276 127.126 69.9205 126.797 66.0575 126.174C63.4871 125.762 61.23 126.238 59.0561 127.597C54.9826 130.148 50.8797 132.665 46.767 135.167C46.1794 135.525 45.5234 136.231 44.7987 135.608C44.2259 135.113 44.6372 134.367 44.7939 133.759C45.6556 130.354 46.4487 126.925 47.4573 123.564C48.2554 120.905 47.565 119.051 45.303 117.466C40.0398 113.767 35.5892 109.204 32.1864 103.739C23.1385 89.2077 24.054 72.2674 34.6785 57.8144C43.5551 45.7359 55.7513 39.3729 70.42 37.4301C71.7909 37.2486 73.1764 37.121 74.5571 37.0327C75.5315 36.969 76.5107 37.018 77.4899 37.018ZM103.449 72.2036C103.454 68.6517 101.03 66.1251 97.5785 66.0761C94.068 66.027 91.3262 68.6713 91.2968 72.13C91.2675 75.5691 94.0142 78.2674 97.51 78.2233C101.04 78.1791 103.444 75.7457 103.449 72.2036ZM65.2301 72.2233C65.2497 68.794 62.6401 66.1349 59.2275 66.1104C55.8149 66.0859 53.1564 68.7057 53.127 72.1251C53.0976 75.5103 55.7513 78.2085 59.1345 78.2233C62.5666 78.238 65.2056 75.6427 65.2301 72.2233Z" fill="white"/>
<path d="M131.239 82.6291C146.583 83.4092 160.591 90.6798 169.154 106.727C175.964 119.497 173.502 135.55 163.582 146.088C162.182 147.574 160.786 149.061 159.381 150.538C157.203 152.824 156.493 155.321 157.878 158.363C158.495 159.712 159.925 161.586 158.843 162.606C157.535 163.843 155.978 161.895 154.549 161.331C152.889 160.673 151.313 159.78 149.721 158.961C146.882 157.494 143.919 157.278 140.948 158.348C124.169 164.397 103.057 158.986 90.7773 141.663C81.3377 128.343 82.6694 110.475 94.1948 97.661C102.925 87.9325 115.243 82.5899 131.239 82.6291ZM136.365 110.309C136.375 113.036 138.563 115.254 141.31 115.313C144.184 115.376 146.549 112.973 146.5 110.034C146.451 107.213 144.081 104.917 141.31 105.01C138.495 105.103 136.355 107.399 136.365 110.309ZM109.98 105.246C107.023 105.241 104.731 107.444 104.765 110.264C104.795 112.987 107.282 115.357 110.068 115.322C112.766 115.288 115.047 113.017 115.111 110.304C115.175 107.434 112.961 105.251 109.98 105.246Z" fill="white"/>
</g>
<defs>
<clipPath id="clip0_431_223">
<rect width="147" height="126" fill="white" transform="translate(26 37)"/>
</clipPath>
</defs>
</svg>
