<svg width="200" height="200" viewBox="0 0 200 200" fill="none" xmlns="http://www.w3.org/2000/svg">
<g clip-path="url(#clip0_431_225)">
<path d="M142.315 155.905C137.161 155.905 132.002 155.82 126.848 155.948C124.644 156.001 123.268 155.191 121.961 153.45C113.018 141.511 103.937 129.669 95.006 117.725C93.5601 115.797 92.8024 115.941 91.3139 117.667C80.9418 129.706 70.4416 141.644 60.0589 153.679C58.6503 155.309 57.1511 156.049 55.0009 155.975C51.2714 155.847 47.5366 155.943 43.8018 155.916C43.0229 155.911 42.0358 156.118 41.593 155.335C41.0914 154.446 42.0358 153.913 42.5213 153.348C52.5039 141.788 62.5025 130.244 72.5011 118.7C76.0492 114.604 79.5226 110.449 83.1827 106.459C84.5432 104.978 84.5645 103.965 83.3534 102.405C72.8266 88.7563 62.3691 75.0655 51.901 61.3853C47.9101 56.1647 43.9352 50.9334 39.9817 45.6861C39.5335 45.0895 38.6478 44.4822 39.1493 43.6298C39.5975 42.8627 40.5792 43.0332 41.3582 43.0438C52.7333 43.1291 64.1138 42.7721 75.4836 43.2995C77.0522 43.3741 77.8846 44.2052 78.7062 45.2972C86.3946 55.5147 94.0669 65.7429 101.798 75.9285C104.599 79.6202 103.97 79.551 106.888 76.1522C115.787 65.7696 124.703 55.4029 133.56 44.9829C134.702 43.6405 135.998 43.0172 137.711 43.0545C142.15 43.1557 146.594 43.225 151.033 43.3368C151.604 43.3528 152.41 43.0971 152.634 43.8909C152.826 44.5727 152.154 44.9776 151.759 45.4304C145.629 52.4516 139.482 59.4675 133.352 66.4887C127.045 73.7124 120.776 80.968 114.411 88.1437C113.034 89.6939 113.056 90.77 114.326 92.4534C129.478 112.5 144.54 132.615 159.618 152.72C160.189 153.481 161.304 154.243 160.925 155.191C160.45 156.385 159.058 155.911 158.049 155.916C152.805 155.959 147.56 155.937 142.315 155.937C142.315 155.927 142.315 155.916 142.315 155.905ZM132.824 143.637C134.093 143.637 134.718 143.695 135.331 143.626C136.34 143.509 137.743 144.175 138.244 143.062C138.65 142.177 137.481 141.383 136.916 140.627C116.358 113.341 95.7529 86.0874 75.2542 58.759C73.1894 56.0048 71.1246 54.0125 67.4058 54.6784C65.6931 54.982 63.0627 53.89 62.3958 55.2164C61.6115 56.7879 63.8631 58.3222 64.9408 59.7445C85.1514 86.4017 105.431 113.011 125.61 139.689C127.675 142.422 129.649 144.692 132.824 143.637Z" fill="white"/>
</g>
<defs>
<clipPath id="clip0_431_225">
<rect width="122" height="113" fill="white" transform="translate(39 43)"/>
</clipPath>
</defs>
</svg>
